<?xml version="1.0" standalone="no"?>
<!DOCTYPE svg PUBLIC "-//W3C//DTD SVG 20010904//EN"
 "http://www.w3.org/TR/2001/REC-SVG-20010904/DTD/svg10.dtd">
<svg version="1.0" xmlns="http://www.w3.org/2000/svg"
 width="125.000000pt" height="125.000000pt" viewBox="0 0 125.000000 125.000000"
 preserveAspectRatio="xMidYMid meet">
<metadata>
Created by potrace 1.14, written by Peter Selinger 2001-2017
</metadata>
<g transform="translate(0.000000,125.000000) scale(0.100000,-0.100000)"
fill="#000000" stroke="none">
<path d="M0 620 l0 -620 625 0 625 0 0 127 0 127 -26 -51 c-20 -41 -35 -56
-70 -74 -57 -27 -136 -23 -181 9 -30 21 -30 21 -48 2 -10 -11 -22 -20 -27 -20
-4 0 -8 125 -8 278 l0 277 35 0 35 0 0 -125 c1 -100 3 -122 13 -109 25 33 78
52 129 46 61 -8 105 -38 129 -91 18 -41 19 -38 19 402 l0 442 -625 0 -625 0 0
-620z m382 -164 l-4 -31 30 29 c53 49 165 46 193 -6 11 -20 11 -20 32 0 50 45
121 56 176 27 42 -21 51 -61 51 -214 l0 -136 -35 0 -35 0 0 138 c0 133 -1 139
-25 162 -26 27 -63 32 -97 14 -35 -19 -48 -70 -48 -193 l0 -114 -32 -4 -33 -3
0 136 c0 132 -1 138 -24 163 -55 58 -132 15 -147 -81 -4 -25 -4 -85 -1 -132
l6 -86 -34 0 -34 0 -3 181 -3 181 36 0 c34 0 35 -1 31 -31z"/>
<path d="M992 415 c-64 -72 -49 -230 25 -264 103 -47 191 74 153 210 -16 57
-54 89 -105 89 -36 0 -48 -5 -73 -35z"/>
</g>
</svg>
